<?xml version="1.0" encoding="utf-8"?>
<!-- Generator: Adobe Illustrator 20.1.0, SVG Export Plug-In . SVG Version: 6.00 Build 0)  -->
<svg version="1.1" id="Слой_1" xmlns="http://www.w3.org/2000/svg" xmlns:xlink="http://www.w3.org/1999/xlink" x="0px" y="0px"
	 viewBox="0 0 56.7 56.7" style="enable-background:new 0 0 56.7 56.7;" xml:space="preserve">
<style type="text/css">
	.st0{fill:#AAAAAA;}
</style>
<path class="st0" d="M14.5,45.2c-0.2,0.2-0.4,0.2-0.7-0.1c-0.3-0.3-0.4-0.5-0.1-0.7c0.2-0.2,0.4-0.2,0.7,0.1
	C14.7,44.7,14.7,45,14.5,45.2z M13,42.9c0.2,0.3,0.2,0.5,0,0.7c-0.2,0.1-0.4,0.1-0.6-0.3c-0.2-0.3-0.2-0.5,0-0.7
	C12.6,42.5,12.8,42.6,13,42.9z M10.7,40.7c-0.1,0.2-0.3,0.2-0.5,0.1c-0.2-0.1-0.3-0.3-0.3-0.4c0.1-0.1,0.2-0.1,0.5-0.1
	C10.7,40.4,10.8,40.5,10.7,40.7z M11.9,42c-0.1,0.2-0.3,0.1-0.6-0.1c-0.2-0.3-0.2-0.5-0.1-0.6c0.1-0.1,0.3-0.1,0.6,0.1
	C12,41.6,12.1,41.8,11.9,42z M16.6,46.1c-0.1,0.3-0.3,0.4-0.7,0.2c-0.4-0.1-0.6-0.3-0.5-0.6c0.1-0.3,0.3-0.4,0.7-0.3
	C16.6,45.6,16.7,45.8,16.6,46.1z M19,46.3c0,0.3-0.2,0.4-0.6,0.4c-0.4,0-0.6-0.1-0.6-0.4c0-0.3,0.2-0.4,0.6-0.4
	C18.8,45.8,19,46,19,46.3z M21.1,45.9c0,0.2-0.1,0.4-0.5,0.5s-0.6,0-0.7-0.3s0.1-0.5,0.5-0.6C20.8,45.5,21.1,45.6,21.1,45.9z
	 M56.7,10.6v35.4c0,2.9-1,5.4-3.1,7.5c-2.1,2.1-4.6,3.1-7.5,3.1h-8.3c-0.4,0-0.7,0-0.9,0s-0.4-0.1-0.7-0.2c-0.3-0.1-0.5-0.3-0.6-0.5
	c-0.1-0.3-0.2-0.6-0.2-1v-8.8c0-2.4-0.6-4.1-1.9-5.2c1.4-0.1,2.7-0.4,3.8-0.7c1.1-0.3,2.3-0.8,3.5-1.4c1.2-0.7,2.2-1.5,3-2.5
	s1.5-2.3,2-3.9c0.5-1.6,0.8-3.5,0.8-5.6c0-3-1-5.5-2.9-7.6c0.9-2.2,0.8-4.7-0.3-7.5c-0.7-0.2-1.7-0.1-3,0.4c-1.3,0.5-2.4,1-3.4,1.6
	l-1.4,0.9c-2.3-0.6-4.7-1-7.1-1s-4.8,0.3-7.1,1c-0.4-0.3-0.9-0.6-1.6-1s-1.7-0.9-3.1-1.4c-1.4-0.6-2.5-0.7-3.2-0.5
	c-1.1,2.8-1.2,5.3-0.3,7.5c-1.9,2.1-2.9,4.6-2.9,7.6c0,2.1,0.3,3.9,0.8,5.5c0.5,1.6,1.2,2.9,1.9,3.9c0.8,1,1.8,1.8,3,2.5
	s2.3,1.1,3.5,1.4c1.1,0.3,2.4,0.5,3.8,0.7c-1,0.9-1.6,2.2-1.8,3.8c-0.5,0.2-1.1,0.4-1.7,0.6c-0.6,0.1-1.3,0.2-2.1,0.2
	s-1.6-0.3-2.4-0.8s-1.5-1.3-2-2.3c-0.5-0.8-1.1-1.4-1.8-1.9s-1.3-0.8-1.8-0.9l-0.7-0.1c-0.5,0-0.9,0.1-1.1,0.2
	c-0.2,0.1-0.3,0.3-0.2,0.4c0.1,0.2,0.2,0.3,0.3,0.5c0.1,0.2,0.3,0.3,0.5,0.4l0.3,0.2c0.5,0.2,1.1,0.7,1.6,1.4
	c0.5,0.7,0.9,1.3,1.2,1.9l0.4,0.8c0.3,0.9,0.9,1.7,1.6,2.3c0.8,0.6,1.6,0.9,2.5,1.1c0.9,0.2,1.7,0.2,2.6,0.3c0.8,0,1.5,0,2-0.1
	l0.8-0.1c0,0.9,0,2.2,0,3.8s0,2.4,0,2.5c0,0.5-0.1,1-0.4,1.2c-0.3,0.3-0.5,0.4-0.8,0.5c-0.3,0-0.7,0.1-1.2,0.1h-8.3
	c-2.9,0-5.4-1-7.5-3.1C1,51.5,0,49,0,46.1V10.6c0-2.9,1-5.4,3.1-7.5S7.7,0,10.6,0h35.4c2.9,0,5.4,1,7.5,3.1
	C55.7,5.2,56.7,7.7,56.7,10.6z"/>
</svg>
