<?xml version="1.0" encoding="utf-8"?>
<!-- Generator: Adobe Illustrator 20.1.0, SVG Export Plug-In . SVG Version: 6.00 Build 0)  -->
<svg version="1.1" id="Слой_1" xmlns="http://www.w3.org/2000/svg" xmlns:xlink="http://www.w3.org/1999/xlink" x="0px" y="0px"
	 viewBox="0 0 56.7 56.7" style="enable-background:new 0 0 56.7 56.7;" xml:space="preserve">
<style type="text/css">
	.st0{fill:#AAAAAA;}
	.st1{fill:#FFFFFF;}
</style>
<path class="st0" d="M56.7,28.3C56.7,44,44,56.7,28.3,56.7C12.7,56.7,0,44,0,28.3C0,12.7,12.7,0,28.3,0C44,0,56.7,12.7,56.7,28.3z"
	/>
<path class="st1" d="M17,14.6v9.7c1.5-1.8,3.3-2.7,5.3-2.7c1.1,0,2,0.2,2.9,0.6c0.9,0.4,1.5,0.9,1.9,1.5c0.4,0.6,0.7,1.3,0.9,2.1
	c0.2,0.8,0.2,1.9,0.2,3.5v10.4h-4.6v-9.4c0-1.9-0.1-3-0.3-3.5c-0.2-0.5-0.5-0.9-0.9-1.2c-0.4-0.3-1-0.4-1.7-0.4
	c-0.8,0-1.4,0.2-2,0.6c-0.6,0.4-1,1-1.3,1.7c-0.3,0.8-0.4,1.9-0.4,3.4l0,8.9h-4.6V14.6C12.4,14.6,17,14.6,17,14.6z M35.1,14.6v9.7
	c1.5-1.8,3.3-2.7,5.3-2.7c1.1,0,2,0.2,2.9,0.6c0.8,0.4,1.5,0.9,1.9,1.5c0.4,0.6,0.7,1.3,0.9,2.1c0.2,0.8,0.2,1.9,0.2,3.5v10.4h-4.6
	v-9.4c0-1.9-0.1-3-0.3-3.5c-0.2-0.5-0.5-0.9-0.9-1.2c-0.4-0.3-1-0.4-1.7-0.4c-0.8,0-1.4,0.2-2,0.6c-0.6,0.4-1,1-1.3,1.7
	c-0.3,0.8-0.4,1.9-0.4,3.4v8.9h-4.6V14.6C30.5,14.6,35.1,14.6,35.1,14.6z"/>
</svg>
