<?xml version="1.0" encoding="utf-8"?>
<!-- Generator: Adobe Illustrator 20.1.0, SVG Export Plug-In . SVG Version: 6.00 Build 0)  -->
<svg version="1.1" id="Слой_1" xmlns="http://www.w3.org/2000/svg" xmlns:xlink="http://www.w3.org/1999/xlink" x="0px" y="0px"
	 viewBox="0 0 56.7 56.7" style="enable-background:new 0 0 56.7 56.7;" xml:space="preserve">
<style type="text/css">
	.st0{fill:#AAAAAA;}
</style>
<g>
	<path class="st0" d="M-16,13L-16,13C-16,12.9-16.1,12.9-16,13L-16,13z"/>
</g>
<path class="st0" d="M52.5,0H4.2C1.9,0,0,1.8,0,4.1v48.6c0,2.2,1.9,4.1,4.2,4.1h48.3c2.3,0,4.2-1.8,4.2-4.1V4.1
	C56.7,1.8,54.8,0,52.5,0z M16,14.8v9.7c1.5-1.8,3.3-2.7,5.3-2.7c1.1,0,2,0.2,2.9,0.6c0.9,0.4,1.5,0.9,1.9,1.5
	c0.4,0.6,0.7,1.3,0.9,2.1c0.2,0.8,0.2,1.9,0.2,3.5v10.4h-4.6v-9.4c0-1.9-0.1-3-0.3-3.5c-0.2-0.5-0.5-0.9-0.9-1.2
	c-0.4-0.3-1-0.4-1.7-0.4c-0.8,0-1.4,0.2-2,0.6c-0.6,0.4-1,1-1.3,1.7c-0.3,0.8-0.4,1.9-0.4,3.4v8.9h-4.6V14.8H16z M34.1,14.8v9.7
	c1.5-1.8,3.3-2.7,5.3-2.7c1.1,0,2,0.2,2.9,0.6c0.8,0.4,1.5,0.9,1.9,1.5c0.4,0.6,0.7,1.3,0.9,2.1s0.2,1.9,0.2,3.5v10.4h-4.6v-9.4
	c0-1.9-0.1-3-0.3-3.5s-0.5-0.9-0.9-1.2s-1-0.4-1.7-0.4c-0.8,0-1.4,0.2-2,0.6c-0.6,0.4-1,1-1.3,1.7c-0.3,0.8-0.4,1.9-0.4,3.4v8.9
	h-4.6V14.8C29.5,14.8,34.1,14.8,34.1,14.8z"/>
</svg>
