<?xml version="1.0" encoding="utf-8"?>
<!-- Generator: Adobe Illustrator 20.1.0, SVG Export Plug-In . SVG Version: 6.00 Build 0)  -->
<svg version="1.1" id="Layer_1" xmlns="http://www.w3.org/2000/svg" xmlns:xlink="http://www.w3.org/1999/xlink" x="0px" y="0px"
	 viewBox="0 0 56.7 56.7" style="enable-background:new 0 0 56.7 56.7;" xml:space="preserve">
<style type="text/css">
	.st0{fill:#AAAAAA;}
</style>
<g>
	<path class="st0" d="M30.5,25.6L30.5,25.6C30.5,25.5,30.4,25.5,30.5,25.6L30.5,25.6z"/>
	<path class="st0" d="M52.5,0H4.2C1.9,0,0,1.8,0,4.1v48.6c0,2.2,1.9,4.1,4.2,4.1h48.3c2.3,0,4.2-1.8,4.2-4.1V4.1
		C56.7,1.8,54.8,0,52.5,0z M17.2,47.5H8.6V21.9h8.6V47.5z M12.9,18.4L12.9,18.4c-2.9,0-4.8-2-4.8-4.4c0-2.5,1.9-4.4,4.8-4.4
		c2.9,0,4.7,1.9,4.8,4.4C17.7,16.4,15.9,18.4,12.9,18.4z M48.1,47.5h-8.6V33.8c0-3.4-1.2-5.8-4.3-5.8c-2.4,0-3.8,1.6-4.4,3.1
		c-0.2,0.5-0.3,1.3-0.3,2.1v14.3h-8.6c0,0,0.1-23.2,0-25.6h8.6v3.6c1.1-1.7,3.2-4.2,7.7-4.2c5.6,0,9.9,3.7,9.9,11.5L48.1,47.5
		L48.1,47.5z"/>
</g>
</svg>
