<?xml version="1.0" encoding="utf-8"?>
<!-- Generator: Adobe Illustrator 20.1.0, SVG Export Plug-In . SVG Version: 6.00 Build 0)  -->
<svg version="1.1" id="Слой_1" xmlns="http://www.w3.org/2000/svg" xmlns:xlink="http://www.w3.org/1999/xlink" x="0px" y="0px"
	 viewBox="0 0 56.7 56.7" style="enable-background:new 0 0 56.7 56.7;" xml:space="preserve">
<style type="text/css">
	.st0{fill:#AAAAAA;}
</style>
<g>
	<path class="st0" d="M-16,13L-16,13C-16,12.9-16.1,12.9-16,13L-16,13z"/>
</g>
<path class="st0" d="M52.5,0H4.2C1.9,0,0,1.8,0,4.1v48.6c0,2.2,1.9,4.1,4.2,4.1h48.3c2.3,0,4.2-1.8,4.2-4.1V4.1
	C56.7,1.8,54.8,0,52.5,0z M15.1,15l3.4-5.6h4.2v14.2h-4v-8.1l-2.8,4.8h-1.6l-2.8-4.8v8.2h-4V9.4h4.2L15.1,15z M29.9,24
	c-3,0-5.4-2.4-5.4-5.4s2.4-5.4,5.4-5.4s5.4,2.4,5.4,5.4C35.3,21.5,32.9,24,29.9,24z M31.8,18.6c0-1-0.8-1.8-1.8-1.8
	c-1,0-1.8,0.8-1.8,1.8c0,1,0.8,1.8,1.8,1.8C30.9,20.4,31.8,19.6,31.8,18.6z M43.9,23.7v-4.8l-3.4,4.8h-3.8V13.5h3.8v4.8l3.4-4.8h3.8
	v10.2H43.9z M45.1,9.2l1.1,2.1c-1.5,0.8-2.7,1.1-4.1,1.1s-2.6-0.3-4.1-1.1l1.2-2.1c1.1,0.5,2.1,0.8,2.9,0.8C43,10,44.1,9.7,45.1,9.2
	z M11.3,41.2H7.5V31h3.8V41.2z M14.4,31h4l-3.3,5l3.5,5.1h-4.1l-3.3-5.1L14.4,31z M23.6,31v1.3c0.4-1,1.6-1.6,2.7-1.6
	c3,0,4.6,2.4,4.6,5.4c0,3-1.6,5.4-4.6,5.4c-1.1,0-2.1-0.6-2.7-1.6v5.5h-3.8V31H23.6z M23.6,35v2.3C24,37.8,24.5,38,25,38
	c1,0,1.8-0.8,1.8-1.8c0-1-0.8-1.8-1.8-1.8C24.4,34.3,24,34.6,23.6,35z M35.4,41.2L31.1,31h4.1l2.1,5.6l2.4-5.6h4.1l-6.4,14.3h-3.8
	L35.4,41.2z M44.8,41.2V31h8.3v3.4h-4.5v6.7H44.8z"/>
</svg>
