<?xml version="1.0" encoding="utf-8"?>
<!-- Generator: Adobe Illustrator 20.1.0, SVG Export Plug-In . SVG Version: 6.00 Build 0)  -->
<svg version="1.1"
	 id="svg7330" xmlns:cc="http://creativecommons.org/ns#" xmlns:dc="http://purl.org/dc/elements/1.1/" xmlns:inkscape="http://www.inkscape.org/namespaces/inkscape" xmlns:rdf="http://www.w3.org/1999/02/22-rdf-syntax-ns#" xmlns:sodipodi="http://sodipodi.sourceforge.net/DTD/sodipodi-0.dtd" xmlns:svg="http://www.w3.org/2000/svg"
	 xmlns="http://www.w3.org/2000/svg" xmlns:xlink="http://www.w3.org/1999/xlink" x="0px" y="0px" viewBox="0 0 56.7 56.7"
	 style="enable-background:new 0 0 56.7 56.7;" xml:space="preserve">
<style type="text/css">
	.st0{fill:#AAAAAA;}
</style>
<g id="layer1" transform="translate(-305.75,-101.61222)">
	<path id="rect3787" class="st0" d="M311.9,101.6c-3.4,0-6.1,2.7-6.1,6.1v44.4c0,3.4,2.7,6.1,6.1,6.1h44.4c3.4,0,6.1-2.7,6.1-6.1
		v-44.4c0-3.4-2.7-6.1-6.1-6.1H311.9L311.9,101.6z M334.7,117.7c0.5,0,1.2,0.1,1.6,0.4c0.3,0.2,0.7,0.5,0.7,1.4c0,3.2,0,6,0,9.2
		c0.1,0.7,0.5,1,0.9,1c0.4,0,0.9-0.3,1.3-0.6c1.9-1.9,4.2-6.5,5.5-9.5c0.5-1.1,1.3-1,2.3-1c3.1,0,4.4,0,7.3,0.1c0.5,0,1,0.5,1.2,0.8
		c0.1,0.3,0.2,1.1-0.5,2.3c-2.2,3.6-4.2,6.4-6.6,9.8c-0.2,0.2-0.3,0.5-0.3,0.7c0,0.2,0.1,0.5,0.3,0.7c2.2,2.3,4.4,4.6,6.7,7.1
		c0.7,0.7,0.2,1.9,0.1,2.2c-0.1,0.2-0.7,0.9-1.2,0.9c-1.5,0-1.5,0-7.8,0c-0.9,0-1.3-0.3-1.8-0.8c-2.2-2.3-1.9-2-4.3-4.6
		c-0.3-0.3-0.9-0.8-1.5-0.5c-0.5,0.2-1.4,0.6-1.4,1.5c0,1,0,2.2,0,3.2c0,0.6-0.9,1-1.5,1c-1.3,0-2.3,0-4.3,0c-2,0-3.8-0.5-4.7-1
		c-4.2-2-6.7-4.9-9.4-9.6c-2.3-4-4.3-8-6.3-12.1c-0.2-0.5-0.4-1.5,1.3-1.5c1.8,0,3.4,0,6.1,0c0.8,0,1.3,0.2,1.6,0.4
		c0.3,0.2,0.5,0.6,0.7,0.9c3.3,6.2,3.3,6.6,5.7,9.6c0.2,0.3,0.5,0.3,0.8,0.3c0.3,0,0.6,0,0.8-0.2c0.5-0.4,0.6-0.8,0.6-1.4
		c0-2.1,0-3.6,0-6.2c0-0.7-0.5-1.8-1-2.1c-0.6-0.3-1.5-0.6-1.4-1c0-0.4,1-1.2,2.8-1.2C330.8,117.7,332.3,117.7,334.7,117.7
		L334.7,117.7z"/>
</g>
</svg>
